<?xml version="1.0" encoding="UTF-8"?>
<!DOCTYPE svg PUBLIC "-//W3C//DTD SVG 1.1//EN" "http://www.w3.org/Graphics/SVG/1.1/DTD/svg11.dtd">
<!-- Creator: CorelDRAW 2020 (64-Bit) -->
<svg xmlns="http://www.w3.org/2000/svg" xml:space="preserve" width="1.25in" height="1.04166in" version="1.1" style="shape-rendering:geometricPrecision; text-rendering:geometricPrecision; image-rendering:optimizeQuality; fill-rule:evenodd; clip-rule:evenodd"
viewBox="0 0 6581.89 5484.88"
 xmlns:xlink="http://www.w3.org/1999/xlink"
 xmlns:xodm="http://www.corel.com/coreldraw/odm/2003">
 <defs>
  <style type="text/css">
   <![CDATA[
    .fil0 {fill:#2F7D18;fill-rule:nonzero}
   ]]>
  </style>
 </defs>
 <g id="Layer_x0020_1">
  <metadata id="CorelCorpID_0Corel-Layer"/>
  <g id="_2018615600480">
   <circle class="fil0" cx="6362.5" cy="219.39" r="219.39"/>
   <circle class="fil0" cx="4826.71" cy="219.39" r="219.39"/>
   <circle class="fil0" cx="3290.95" cy="219.39" r="219.39"/>
   <circle class="fil0" cx="1755.18" cy="219.39" r="219.39"/>
   <circle class="fil0" cx="219.39" cy="219.39" r="219.39"/>
   <circle class="fil0" cx="6362.5" cy="1480.92" r="219.39"/>
   <circle class="fil0" cx="4826.71" cy="1480.92" r="219.39"/>
   <circle class="fil0" cx="3290.95" cy="1480.92" r="219.39"/>
   <circle class="fil0" cx="1755.18" cy="1480.92" r="219.39"/>
   <circle class="fil0" cx="219.39" cy="1480.92" r="219.39"/>
   <circle class="fil0" cx="6362.5" cy="2742.44" r="219.39"/>
   <circle class="fil0" cx="4826.71" cy="2742.44" r="219.39"/>
   <circle class="fil0" cx="3290.95" cy="2742.44" r="219.39"/>
   <circle class="fil0" cx="1755.18" cy="2742.44" r="219.39"/>
   <circle class="fil0" cx="219.39" cy="2742.44" r="219.39"/>
   <circle class="fil0" cx="6362.5" cy="4003.97" r="219.39"/>
   <circle class="fil0" cx="4826.71" cy="4003.97" r="219.39"/>
   <circle class="fil0" cx="3290.95" cy="4003.97" r="219.39"/>
   <circle class="fil0" cx="1755.18" cy="4003.97" r="219.39"/>
   <circle class="fil0" cx="219.39" cy="4003.97" r="219.39"/>
   <circle class="fil0" cx="6362.5" cy="5265.49" r="219.39"/>
   <circle class="fil0" cx="4826.71" cy="5265.49" r="219.39"/>
   <circle class="fil0" cx="3290.95" cy="5265.49" r="219.39"/>
   <circle class="fil0" cx="1755.18" cy="5265.49" r="219.39"/>
   <circle class="fil0" cx="219.39" cy="5265.49" r="219.39"/>
  </g>
 </g>
</svg>
