<?xml version="1.0" encoding="UTF-8"?>
<!DOCTYPE svg PUBLIC "-//W3C//DTD SVG 1.1//EN" "http://www.w3.org/Graphics/SVG/1.1/DTD/svg11.dtd">
<!-- Creator: CorelDRAW 2020 (64-Bit) -->
<svg xmlns="http://www.w3.org/2000/svg" xml:space="preserve" width="1.92292in" height="1.39719in" version="1.1" style="shape-rendering:geometricPrecision; text-rendering:geometricPrecision; image-rendering:optimizeQuality; fill-rule:evenodd; clip-rule:evenodd"
viewBox="0 0 6704.14 4871.23"
 xmlns:xlink="http://www.w3.org/1999/xlink"
 xmlns:xodm="http://www.corel.com/coreldraw/odm/2003">
 <defs>
  <style type="text/css">
   <![CDATA[
    .fil0 {fill:#2F7D18}
    .fil1 {fill:#2F7D18;fill-rule:nonzero}
   ]]>
  </style>
 </defs>
 <g id="Layer_x0020_1">
  <metadata id="CorelCorpID_0Corel-Layer"/>
  <g id="_2018618229136">
   <path class="fil0" d="M4547.54 36.31c-59.24,1.44 -117.89,5.92 -175.78,13.26l-4.57 -36.03c59.12,-7.49 118.96,-12.07 179.47,-13.53l0.88 36.31zm351.11 27.19c-58.58,-10.53 -116.88,-17.98 -174.72,-22.47l2.79 -36.21c59.09,4.58 118.58,12.19 178.36,22.94l-6.42 35.74zm-700.35 17.02c-57.55,13.29 -114.13,29.4 -169.71,48.16l-11.61 -34.41c56.65,-19.15 114.43,-35.58 173.16,-49.14l8.17 35.39zm1039.26 78.54c-55.87,-21.59 -111.65,-40.19 -167.28,-55.91l9.88 -34.95c56.72,16.03 113.6,34.99 170.46,56.99l-13.07 33.86zm-1373.12 34.14c-53.75,24.16 -106.23,50.86 -157.29,79.9l-17.94 -31.56c52.05,-29.61 105.54,-56.83 160.31,-81.46l14.92 33.12zm1689.88 121.49c-51.61,-30.97 -103.33,-59.15 -155.12,-84.64l16.06 -32.59c52.69,25.94 105.28,54.6 157.75,86.08l-18.69 31.14zm-1996.36 52.71c-48.26,33.75 -94.97,69.69 -139.9,107.63l-23.42 -27.75c45.76,-38.65 93.34,-75.26 142.5,-109.63l20.81 29.76zm2284.78 151.48c-46.6,-38.28 -93.45,-74.05 -140.47,-107.42l21.03 -29.62c47.71,33.86 95.26,70.17 142.5,108.97l-23.06 28.07zm-2554.2 76.02c-41.41,41.93 -80.89,85.71 -118.22,131.13l-28.03 -23.06c38.02,-46.27 78.23,-90.85 120.39,-133.58l25.86 25.52zm2812.55 165.3c-41.55,-43.75 -83.39,-85.28 -125.47,-124.66l24.8 -26.52c42.63,39.89 84.98,81.93 126.99,126.17l-26.33 25.01zm-3036.52 107.13c-33.09,48.74 -63.88,98.95 -92.23,150.44l-31.82 -17.53c28.89,-52.48 60.29,-103.65 94,-153.31l30.05 20.4zm3266.41 162.38c-36.85,-47.89 -74.08,-93.82 -111.59,-137.85l27.67 -23.55c37.87,44.5 75.47,90.91 112.69,139.25l-28.77 22.15zm204.15 291.09c-32.61,-50.92 -65.6,-100.13 -98.86,-147.67l29.74 -20.82c33.55,47.95 66.82,97.57 99.68,148.9l-30.57 19.59zm-3640.4 -144.6c-11.67,27.01 -22.66,54.29 -32.97,81.82 -10.82,28.87 -21.06,57.58 -30.73,86.16l-34.4 -11.65c9.8,-28.93 20.16,-58.03 31.12,-87.26 10.53,-28.08 21.74,-55.91 33.63,-83.45l33.35 14.38zm3777.82 373.28c-14.96,-26.48 -29.99,-52.56 -45.1,-78.25l31.31 -18.42c15.22,25.87 30.36,52.16 45.39,78.83l-31.6 17.84zm-3894.13 -31.19c-15.92,59.9 -29.42,119.09 -40.64,177.53l-35.66 -6.85c11.38,-59.28 25.06,-119.29 41.21,-180.02l35.1 9.33zm-68.44 357.25c-7.19,61.34 -11.94,121.76 -14.41,181.23l-36.28 -1.51c2.51,-60.37 7.32,-121.7 14.62,-183.94l36.07 4.23zm-15.04 363.23c2.16,61.64 6.67,122.11 13.33,181.35l-36.09 4.05c-6.77,-60.15 -11.35,-121.54 -13.53,-184.12l36.29 -1.28zm40.53 361.07c11.56,60.57 25.26,119.65 40.82,177.16l-35.06 9.48c-15.8,-58.38 -29.7,-118.35 -41.44,-179.84l35.67 -6.81zm94.86 350.87c20.56,58.36 42.92,114.82 66.71,169.26l-33.29 14.54c-24.13,-55.22 -46.82,-112.5 -67.68,-171.71l34.26 -12.08zm462.32 231.56c-55.43,-7.19 -112.44,-11.65 -170.7,-13.09l0.91 -36.31c59.49,1.48 117.78,6.03 174.47,13.38l-4.68 36.02zm-341.93 -8.66c-55.99,4.28 -112.73,11.38 -169.93,21.54l-6.36 -35.76c58.39,-10.36 116.34,-17.62 173.53,-21.99l2.76 36.21zm673.45 90.07c-51.71,-19.45 -106.36,-36.32 -163.38,-50.22l8.57 -35.29c58.43,14.23 114.48,31.53 167.61,51.53l-12.79 33.99zm-1010.23 -30.32c-54.05,15.21 -108.26,33.27 -162.37,54.37l-13.2 -33.83c55.23,-21.52 110.55,-39.97 165.73,-55.49l9.84 34.96zm361.96 50.7c29.09,55.29 59.42,108 90.52,158.02l-30.84 19.18c-31.56,-50.75 -62.33,-104.21 -91.81,-160.29l32.13 -16.9zm945.13 143.73c-42.08,-33.62 -89.51,-64.92 -141.6,-93.34l17.43 -31.87c53.72,29.33 102.93,61.81 146.83,96.84l-22.66 28.37zm-1625.98 -70.17c-25.32,12.79 -50.57,26.3 -75.73,40.52 -27.53,15.59 -54.86,31.1 -81.97,46.5l-17.95 -31.57c27.14,-15.43 54.49,-30.92 82.04,-46.52 25.65,-14.52 51.4,-28.29 77.24,-41.34l16.38 32.41zm-321.42 180.42c-55.54,31.8 -110,63.13 -163.3,93.87l-18.16 -31.45c53.34,-30.79 107.85,-62.11 163.42,-93.94l18.04 31.52zm2145.85 154.8c-16.33,-50.27 -43.18,-99.24 -79.31,-145.91l28.69 -22.24c38.35,49.5 67.33,102.16 85.17,156.89l-34.55 11.26zm-951.39 -99.91c37.6,51.5 75.47,99.12 112.88,142.63l-27.53 23.68c-38.02,-44.24 -76.52,-92.61 -114.68,-144.91l29.33 -21.4zm-1520.79 133.4c-55.81,32.46 -110.08,64.13 -162.7,94.97l-18.37 -31.35c52.65,-30.83 106.97,-62.54 162.81,-95l18.26 31.38zm2467.82 209.52c9.84,-26.85 16.44,-53.61 19.97,-80.19l36.03 4.79c-3.93,29.26 -11.16,58.61 -21.91,87.92 -13.4,36.58 -30.14,67.37 -49.76,92.98l-28.82 -22.09c17.1,-22.33 32.17,-49.83 44.49,-83.41zm-709.67 -68.14c22.95,22.09 45.28,42.28 66.78,60.57l0.44 0.37 0.44 0.4c18.08,17.5 44.23,38.38 76.15,59.6l-20.12 30.25c-33.01,-21.98 -60.82,-44.02 -80.87,-63.35 -21.93,-18.69 -44.71,-39.26 -67.97,-61.66l25.16 -26.19zm-2083.32 49.14c-56.47,33.34 -110.55,65.41 -162.06,96.1l-18.57 -31.24c51.54,-30.68 105.66,-62.76 162.17,-96.12l18.46 31.27zm2401.68 159.79c63.37,22.37 128.96,34.77 188.73,28.73l3.68 36.14c-66.94,6.75 -138.15,-7.19 -204.51,-30.62l12.09 -34.25zm-2725.28 32.92c-58.54,35.15 -112.46,67.72 -161.35,97.43l-18.85 -31.05c48.93,-29.7 102.9,-62.32 161.5,-97.55l18.69 31.17zm-322.08 195.71c-30.9,19.07 -57.54,35.63 -79.68,49.5l-19.29 -30.79c22.22,-13.92 48.95,-30.51 79.9,-49.62l19.07 30.91z"/>
   <polygon class="fil1" points="417.73,4175.79 304.71,4162.75 252.27,4617.69 704.4,4669.81 717.49,4556.06 378.42,4516.98 "/>
   <polygon class="fil1" points="52.43,4364.17 165.45,4377.19 126.14,4718.4 465.22,4757.48 452.13,4871.23 -0,4819.11 "/>
  </g>
 </g>
</svg>
